<svg width="14" height="14" viewBox="0 0 14 14" fill="none" xmlns="http://www.w3.org/2000/svg">
<g clip-path="url(#clip0_241_2166)">
<path d="M6.62881 6.54127L1.04353 4.18958C0.963514 4.15587 0.875 4.21464 0.875 4.30148V10.5885C0.875 10.7474 0.971722 10.8903 1.11925 10.9493L6.5366 13.1162C6.61635 13.1481 6.70311 13.0894 6.70311 13.0035V6.65317C6.70311 6.60431 6.67383 6.56024 6.62881 6.54127Z" fill="#BFDEFF"/>
<path d="M7.13871 5.87314L12.5374 3.60003C12.6344 3.55918 12.637 3.42261 12.5416 3.3781L7.25591 0.911444C7.15175 0.862852 7.03145 0.862852 6.9273 0.911444L1.64161 3.3781C1.5462 3.42261 1.5488 3.55918 1.64584 3.60003L7.04449 5.87314C7.0746 5.88584 7.1086 5.88584 7.13871 5.87314Z" fill="#83ADF3"/>
<path d="M7.48022 6.65317V13.0035C7.48022 13.0894 7.56699 13.1481 7.64674 13.1162L13.0641 10.9493C13.2116 10.8903 13.3083 10.7474 13.3083 10.5885V4.30148C13.3083 4.21464 13.2198 4.15587 13.1398 4.18958L7.55453 6.54127C7.50951 6.56024 7.48022 6.60431 7.48022 6.65317Z" fill="#83ADF3"/>
</g>
<defs>
<clipPath id="clip0_241_2166">
<rect width="14" height="14" fill="white"/>
</clipPath>
</defs>
</svg>
